<svg height="610" width="1384" viewBox="0 0 1384 610" xmlns="http://www.w3.org/2000/svg"><path d="m1382.87 226c0-92.77-54.27-149.82-133.59-149.82-33.86 0-66.8 13.91-91.84 39a129.34 129.34 0 0 0 -30 46.28v-161.46h-75.7v108.72c-17.24-22-41.2-32.57-72.34-32.57-32.58 0-61.8 12-85.76 35.45-17.28 16.67-29.37 36.34-35.8 58.08a131.54 131.54 0 0 0 -35.44-57.29c-25.05-23.7-56.18-36.24-92.4-36.24-33.92 0-66.91 13.94-92 39a129.53 129.53 0 0 0 -30.08 46.56c-21.7-55.54-65.62-85.59-124.16-85.59q-39.51 0-70.68 21.26l-36.08 87.42c-13.88-68.16-62.91-108.65-129.69-108.65-33.86 0-66.79 13.91-91.84 39a132.22 132.22 0 0 0 -18.93 23.85v-62.85q-46 0-64.67 38.8v-33.95h-71.87v252h76.65v-123.19c0-46.67 9.78-63.18 55.74-63.69a127.44 127.44 0 0 0 -15 60.37c0 35.25 12.53 66.79 36.65 92.3 25.51 26.9 56.12 39.89 94.16 39.89 28.42 0 53.09-6.91 73.64-20.58l23.88-57.81h-57.13c-11.13 9.74-23.19 13.92-38 13.92-32 0-51-13.92-57.52-40.36h163.78a132.06 132.06 0 0 0 33.82 65c25.46 26.86 56 39.82 94 39.82 56.95 0 102.88-31.43 123.61-84.71a129.81 129.81 0 0 0 28.31 44.75c25.55 26.95 56.22 40 94.32 40 37.64 0 69.24-13.47 94.8-39a124.07 124.07 0 0 0 32.07-53.39c6.8 23.84 20.11 44.83 39.75 62.25q33.76 30.18 80.48 30.18c30.67 0 53.66-8.14 76.18-30.18v24.43h73.3v-80a132.92 132.92 0 0 0 28.51 45.8c25.52 26.9 56.13 39.89 94.17 39.89 55.66 0 96.94-26.44 121.06-78.39h-80.71c-11.13 9.74-23.19 13.91-38 13.91-32 0-51-13.91-57.52-40.35h187.86zm-1192.15-44.1c5.1-23.65 26.9-39.42 57.52-39.42 29.22 0 50.09 13.91 58.91 39.42zm343 61.4c-12 16.2-28.24 24.54-48.15 24.54-35.19 0-59.27-23.62-59.27-61.58.02-34.26 24.1-59.26 56.97-59.26 24.08 0 41.21 9.26 51.4 26.39h69.52a130.14 130.14 0 0 0 -4.32 33.34 136.37 136.37 0 0 0 4.92 36.58zm197.63 27.35c-32.93 0-60.62-28.16-60.62-63 0-35.31 27.21-63.47 60.62-63.47s60.65 28.16 60.65 63.47c0 34.84-27.22 63-60.63 63zm263.39 0c-38.66 0-66.34-27.2-66.34-63a63.44 63.44 0 0 1 63.48-63.47c35.31 0 62.52 27.68 62.52 64.43.02 35.31-27.19 62.04-59.64 62.04zm197.93-88.74c5.1-23.66 26.9-39.43 57.52-39.43 29.22 0 50.1 13.91 58.91 39.43z" fill="#ee2b24"/><g fill="#010101"><path d="m959.21 537.46c10.33 0 16.91-8.59 16.9-18.22 0-8.19-5.91-14.24-14.28-14.23-15.15 0-22.26 12-34.7 34.1-2.7-13.72-9-31.71-25-31.68-18 0-38.63 25.73-57.68 41.62-8.54 7.15-18.15 11.8-25.82 11.81-7.84 0-12.49-8-12.51-22.08 5.48-23 8.5-29.07 17.06-29.08 5.88 0 8.38 3.37 8.39 10.32 0 7.31-1.57 19.79-4.75 35.3 8.55-2.69 21.37-13.4 32-25-5.72-13.53-17.86-22.78-35.51-22.75-32.61.05-61.08 29.33-61 62.13 0 22.63 16.11 39.72 41.24 39.67 41.53-.06 58.76-36.1 58.72-61.05a80.36 80.36 0 0 0 -.55-9.44c6.4-7 14.59-13.58 21.36-13.59 7.67 0 13.76 19.23 19.87 48.27-5.34 5.89-10.67 17.31-13.34 19.27-1.09-10.33-7.87-16.74-17-16.72-10.16 0-17.27 9.65-17.26 17.85 0 9.27 6.44 15.32 14.82 15.3 17.65 0 22.61-16.79 33.63-31.6 3.42 15.86 11.29 31.53 24.83 31.51 16 0 31-13.78 38.64-23.6l-1.43-2.31c-5 4.82-9.79 8-15.32 8-10 0-17.14-21.54-22.71-47.56 3.2-4.46 8.35-15.7 11.91-19.62 2.5 4.63 7.69 13.35 19.45 13.34m-155.09 69.81c-5 0-8-1.6-8-9.8 0-10.33 3.69-30.48 7.76-48.84.55 8.55 6.44 16.92 15.17 16.9a28 28 0 0 0 5.71-.54c-8 34.94-11.16 42.26-20.61 42.28m6.18-144h4.46l.53-2-55.08.1-.53 1.95h8c7 0 12.49 4.79 12.5 14.42 0 5.34-2.29 12.3-6 20.68l-35.37 78.83-8.91-102.29c-.72-8 3.2-11.59 12.28-11.61h5.17l.54-2-77.54.13-.71 2h5c6.06 0 8.39 3.72 9.11 11l13.95 132.23 32.61-.06 54.35-115.58c8.17-17.3 16.89-27.84 25.62-27.85"/><path d="m488.45 579.94c0 18.25-12.7 27.93-33 27.93h-37.3v-97.44h34.12c20.32 0 33 9 33 26.5 0 10.47-5.55 18.09-12.69 20.63a23.59 23.59 0 0 1 15.87 22.38zm-36.35-28.57c11.27 0 17.3-4.28 17.3-13.49s-6-13.17-17.3-13.17h-17.93v26.66zm-17.93 42.22h20.95c11.11 0 17.14-5.56 17.14-14.29s-6-14.28-17.14-14.28h-20.95z"/><path d="m574.46 510.43h17.46l-35.39 58.57v38.88h-16.35v-38.88l-35.18-58.57h17.93l25.87 43.64z"/></g></svg>
