<svg height="610" width="1384" viewBox="0 0 1384 610" xmlns="http://www.w3.org/2000/svg"><path d="m1382.9 226c0-92.8-54.3-149.8-133.6-149.8-33.9 0-66.8 13.9-91.8 39-13.2 13.1-23.4 28.9-30 46.3v-161.5h-75.7v108.7c-17.2-22-41.2-32.6-72.3-32.6-32.6 0-61.8 12-85.8 35.5-17.3 16.7-29.4 36.3-35.8 58.1-6.6-21.8-18.9-41.6-35.4-57.3-25.1-23.7-56.2-36.2-92.4-36.2-33.9 0-66.9 13.9-92 39-13.3 13.2-23.5 29.1-30.1 46.6-21.7-55.5-65.6-85.6-124.2-85.6-26.3 0-49.9 7.1-70.7 21.3l-36.1 87.3c-13.9-68.2-62.9-108.7-129.7-108.7-33.9 0-66.8 13.9-91.8 39-7.2 7.2-13.6 15.2-18.9 23.8v-62.7c-30.7 0-52.2 12.9-64.7 38.8v-34h-71.9v252h76.7v-123.2c0-46.7 9.8-63.2 55.7-63.7-9.9 18.6-15.1 39.3-15 60.4 0 35.2 12.5 66.8 36.7 92.3 25.5 26.9 56.1 39.9 94.2 39.9 28.4 0 53.1-6.9 73.6-20.6l23.9-57.8h-57.1c-11.1 9.7-23.2 13.9-38 13.9-32 0-51-13.9-57.5-40.4h163.8c4.9 24.4 16.6 47 33.8 65 25.5 26.9 56 39.8 94 39.8 56.9 0 102.9-31.4 123.6-84.7 6.3 16.7 15.9 31.9 28.3 44.8 25.5 27 56.2 40 94.3 40 37.6 0 69.2-13.5 94.8-39 15.1-14.8 26.1-33.2 32.1-53.4 6.8 23.8 20.1 44.8 39.8 62.3 22.5 20.1 49.3 30.2 80.5 30.2 30.7 0 53.7-8.1 76.2-30.2v24.4h73.3v-80c6.3 17.1 16 32.6 28.5 45.8 25.5 26.9 56.1 39.9 94.2 39.9 55.7 0 96.9-26.4 121.1-78.4h-80.7c-11.1 9.7-23.2 13.9-38 13.9-32 0-51-13.9-57.5-40.4h187.9zm-1192.2-44.1c5.1-23.6 26.9-39.4 57.5-39.4 29.2 0 50.1 13.9 58.9 39.4zm343 61.4c-12 16.2-28.2 24.5-48.1 24.5-35.2 0-59.3-23.6-59.3-61.6 0-34.3 24.1-59.3 57-59.3 24.1 0 41.2 9.3 51.4 26.4h69.5c-2.9 10.9-4.3 22.1-4.3 33.3 0 12.4 1.6 24.7 4.9 36.6zm197.6 27.3c-32.9 0-60.6-28.2-60.6-63 0-35.3 27.2-63.5 60.6-63.5s60.7 28.2 60.7 63.5c0 34.9-27.2 63-60.7 63zm263.4 0c-38.7 0-66.3-27.2-66.3-63 0-35 28.4-63.5 63.4-63.5h.1c35.3 0 62.5 27.7 62.5 64.4 0 35.4-27.2 62.1-59.7 62.1zm198-88.7c5.1-23.7 26.9-39.4 57.5-39.4 29.2 0 50.1 13.9 58.9 39.4z" fill="#ee2b24"/><g fill="#fff"><path d="m959.2 537.5c10.3 0 16.9-8.6 16.9-18.2 0-8.2-5.9-14.2-14.3-14.2-15.2 0-22.3 12-34.7 34.1-2.7-13.7-9-31.7-25-31.7-18 0-38.6 25.7-57.7 41.6-8.5 7.2-18.2 11.8-25.8 11.8-7.8 0-12.5-8-12.5-22.1 5.5-23 8.5-29.1 17.1-29.1 5.9 0 8.4 3.4 8.4 10.3 0 7.3-1.6 19.8-4.8 35.3 8.5-2.7 21.4-13.4 32-25-5.7-13.5-17.9-22.8-35.5-22.8-32.6 0-61.1 29.3-61 62.1 0 22.6 16.1 39.7 41.2 39.7 41.5-.1 58.8-36.1 58.7-61 0-3.2-.2-6.3-.5-9.4 6.4-7 14.6-13.6 21.4-13.6 7.7 0 13.8 19.2 19.9 48.3-5.3 5.9-10.7 17.3-13.3 19.3-1.1-10.3-7.9-16.7-17-16.7-10.2 0-17.3 9.7-17.3 17.8 0 9.3 6.4 15.3 14.8 15.3 17.7 0 22.6-16.8 33.6-31.6 3.4 15.9 11.3 31.5 24.8 31.5 16 0 31-13.8 38.6-23.6l-1.4-2.3c-5 4.8-9.8 8-15.3 8-10 0-17.1-21.5-22.7-47.6 3.2-4.5 8.3-15.7 11.9-19.6 2.5 4.6 7.7 13.3 19.5 13.4m-155.1 69.7c-5 0-8-1.6-8-9.8 0-10.3 3.7-30.5 7.8-48.8.5 8.5 6.4 16.9 15.2 16.9 1.9 0 3.8-.2 5.7-.5-8.1 34.9-11.2 42.2-20.7 42.2m6.2-144h4.5l.5-2-55.1.1-.5 2h8c7 0 12.5 4.8 12.5 14.4 0 5.3-2.3 12.3-6 20.7l-35.4 78.8-8.9-102.3c-.7-8 3.2-11.6 12.3-11.6h5.2l.5-2-77.5.1-.7 2h5c6.1 0 8.4 3.7 9.1 11l14 132.2 32.6-.1 54.2-115.5c8.2-17.3 16.9-27.8 25.7-27.8"/><path d="m488.5 579.9c0 18.2-12.7 27.9-33 27.9h-37.3v-97.4h34.1c20.3 0 33 9 33 26.5 0 10.5-5.5 18.1-12.7 20.6 9.5 3.4 15.9 12.4 15.9 22.4zm-36.4-28.5c11.3 0 17.3-4.3 17.3-13.5s-6-13.2-17.3-13.2h-17.9v26.7zm-17.9 42.2h21c11.1 0 17.1-5.6 17.1-14.3s-6-14.3-17.1-14.3h-20.9v28.6z"/><path d="m574.5 510.4h17.5l-35.5 58.6v38.9h-16.4v-38.9l-35.1-58.6h17.9l25.9 43.6z"/></g></svg>
