<?xml version="1.0" encoding="utf-8"?>
<!-- Generator: Adobe Illustrator 23.0.3, SVG Export Plug-In . SVG Version: 6.00 Build 0)  -->
<svg version="1.1" id="Layer_1" xmlns="http://www.w3.org/2000/svg" xmlns:xlink="http://www.w3.org/1999/xlink" x="0px" y="0px"
	 viewBox="0 0 1382.9 606.7" style="enable-background:new 0 0 1382.9 606.7;" xml:space="preserve">
<style type="text/css">
	.st0{fill:#EE2B24;}
	.st1{fill:#FFFFFF;}
</style>
<title>Recode_Logo_Primary</title>
<path class="st0" d="M1382.9,226c0-92.8-54.3-149.8-133.6-149.8c-33.9,0-66.8,13.9-91.8,39c-13.2,13.1-23.4,28.9-30,46.3V0h-75.7
	v108.7c-17.2-22-41.2-32.6-72.3-32.6c-32.6,0-61.8,12-85.8,35.5c-17.3,16.7-29.4,36.3-35.8,58.1c-6.6-21.8-18.9-41.6-35.4-57.3
	c-25.1-23.7-56.2-36.2-92.4-36.2c-33.9,0-66.9,13.9-92,39c-13.3,13.2-23.5,29.1-30.1,46.6c-21.7-55.5-65.6-85.6-124.2-85.6
	c-26.3,0-49.9,7.1-70.7,21.3L377,184.8c-13.9-68.2-62.9-108.7-129.7-108.7c-33.9,0-66.8,13.9-91.8,39c-7.2,7.2-13.6,15.2-18.9,23.8
	V76.2c-30.7,0-52.2,12.9-64.7,38.8V81H0v252h76.7V209.8c0-46.7,9.8-63.2,55.7-63.7c-9.9,18.6-15.1,39.3-15,60.4
	c0,35.2,12.5,66.8,36.7,92.3c25.5,26.9,56.1,39.9,94.2,39.9c28.4,0,53.1-6.9,73.6-20.6l23.9-57.8h-57.1c-11.1,9.7-23.2,13.9-38,13.9
	c-32,0-51-13.9-57.5-40.4h163.8c4.9,24.4,16.6,47,33.8,65c25.5,26.9,56,39.8,94,39.8c56.9,0,102.9-31.4,123.6-84.7
	c6.3,16.7,15.9,31.9,28.3,44.8c25.5,27,56.2,40,94.3,40c37.6,0,69.2-13.5,94.8-39c15.1-14.8,26.1-33.2,32.1-53.4
	c6.8,23.8,20.1,44.8,39.8,62.3c22.5,20.1,49.3,30.2,80.5,30.2c30.7,0,53.7-8.1,76.2-30.2V333h73.3v-80c6.3,17.1,16,32.6,28.5,45.8
	c25.5,26.9,56.1,39.9,94.2,39.9c55.7,0,96.9-26.4,121.1-78.4h-80.7c-11.1,9.7-23.2,13.9-38,13.9c-32,0-51-13.9-57.5-40.4h187.9
	L1382.9,226z M190.7,181.9c5.1-23.6,26.9-39.4,57.5-39.4c29.2,0,50.1,13.9,58.9,39.4H190.7z M533.7,243.3
	c-12,16.2-28.2,24.5-48.1,24.5c-35.2,0-59.3-23.6-59.3-61.6c0-34.3,24.1-59.3,57-59.3c24.1,0,41.2,9.3,51.4,26.4h69.5
	c-2.9,10.9-4.3,22.1-4.3,33.3c0,12.4,1.6,24.7,4.9,36.6L533.7,243.3z M731.3,270.6c-32.9,0-60.6-28.2-60.6-63
	c0-35.3,27.2-63.5,60.6-63.5s60.7,28.2,60.7,63.5C792,242.5,764.8,270.6,731.3,270.6L731.3,270.6z M994.7,270.6
	c-38.7,0-66.3-27.2-66.3-63c0-35,28.4-63.5,63.4-63.5c0,0,0,0,0.1,0c35.3,0,62.5,27.7,62.5,64.4
	C1054.4,243.9,1027.2,270.6,994.7,270.6L994.7,270.6z M1192.7,181.9c5.1-23.7,26.9-39.4,57.5-39.4c29.2,0,50.1,13.9,58.9,39.4
	H1192.7z"/>
<path class="st1" d="M959.2,537.5c10.3,0,16.9-8.6,16.9-18.2c0-8.2-5.9-14.2-14.3-14.2c-15.2,0-22.3,12-34.7,34.1
	c-2.7-13.7-9-31.7-25-31.7c-18,0-38.6,25.7-57.7,41.6c-8.5,7.2-18.2,11.8-25.8,11.8c-7.8,0-12.5-8-12.5-22.1
	c5.5-23,8.5-29.1,17.1-29.1c5.9,0,8.4,3.4,8.4,10.3c0,7.3-1.6,19.8-4.8,35.3c8.5-2.7,21.4-13.4,32-25c-5.7-13.5-17.9-22.8-35.5-22.8
	c-32.6,0-61.1,29.3-61,62.1c0,22.6,16.1,39.7,41.2,39.7c41.5-0.1,58.8-36.1,58.7-61c0-3.2-0.2-6.3-0.5-9.4
	c6.4-7,14.6-13.6,21.4-13.6c7.7,0,13.8,19.2,19.9,48.3c-5.3,5.9-10.7,17.3-13.3,19.3c-1.1-10.3-7.9-16.7-17-16.7
	c-10.2,0-17.3,9.7-17.3,17.8c0,9.3,6.4,15.3,14.8,15.3c17.7,0,22.6-16.8,33.6-31.6c3.4,15.9,11.3,31.5,24.8,31.5
	c16,0,31-13.8,38.6-23.6l-1.4-2.3c-5,4.8-9.8,8-15.3,8c-10,0-17.1-21.5-22.7-47.6c3.2-4.5,8.3-15.7,11.9-19.6
	C942.2,528.7,947.4,537.4,959.2,537.5 M804.1,607.2c-5,0-8-1.6-8-9.8c0-10.3,3.7-30.5,7.8-48.8c0.5,8.5,6.4,16.9,15.2,16.9
	c1.9,0,3.8-0.2,5.7-0.5C816.7,599.9,813.6,607.2,804.1,607.2 M810.3,463.2h4.5l0.5-2l-55.1,0.1l-0.5,2h8c7,0,12.5,4.8,12.5,14.4
	c0,5.3-2.3,12.3-6,20.7l-35.4,78.8l-8.9-102.3c-0.7-8,3.2-11.6,12.3-11.6h5.2l0.5-2l-77.5,0.1l-0.7,2h5c6.1,0,8.4,3.7,9.1,11
	l14,132.2l32.6-0.1L784.6,491C792.8,473.7,801.5,463.2,810.3,463.2"/>
<path class="st1" d="M488.5,579.9c0,18.2-12.7,27.9-33,27.9h-37.3v-97.4h34.1c20.3,0,33,9,33,26.5c0,10.5-5.5,18.1-12.7,20.6
	C482.1,560.9,488.5,569.9,488.5,579.9z M452.1,551.4c11.3,0,17.3-4.3,17.3-13.5s-6-13.2-17.3-13.2h-17.9v26.7H452.1z M434.2,593.6
	h21c11.1,0,17.1-5.6,17.1-14.3s-6-14.3-17.1-14.3h-20.9V593.6z"/>
<path class="st1" d="M574.5,510.4h17.5L556.5,569v38.9h-16.4V569L505,510.4h17.9l25.9,43.6L574.5,510.4z"/>
</svg>
